<?xml version="1.0" encoding="iso-8859-1"?>
<!-- Generator: Adobe Illustrator 19.2.0, SVG Export Plug-In . SVG Version: 6.00 Build 0)  -->
<!DOCTYPE svg PUBLIC "-//W3C//DTD SVG 1.1//EN" "http://www.w3.org/Graphics/SVG/1.1/DTD/svg11.dtd">
<svg version="1.1" id="Layer_1" xmlns="http://www.w3.org/2000/svg" xmlns:xlink="http://www.w3.org/1999/xlink" x="0px" y="0px"
	 viewBox="0 0 432.013 65.202" style="enable-background:new 0 0 432.013 65.202;" xml:space="preserve">
<g>
	<polygon style="fill:#FFFFFF;" points="13.717,0 13.708,21.157 15.899,21.153 7.277,44.05 0,44.041 0,65.202 70.63,65.202 
		70.63,44.012 63.302,44.003 54.755,21.17 56.9,21.18 56.9,0.006 	"/>
	<g>
		<path style="fill:#BD2036;" d="M35.302,7.906L50.43,47.134c0,0,1.939,4.773,5.087,4.773H44.502c0,0,0.553,0.081,1.104-0.838
			c0.316-0.524,0.05-1.312,0.05-1.312L42.25,41h-6.948h-6.918l-3.412,8.757c0,0-0.26,0.788,0.055,1.312
			c0.549,0.919,1.101,0.838,1.101,0.838H15.114c3.146,0,5.086-4.773,5.086-4.773L35.302,7.906z"/>
	</g>
	<polygon style="fill:#00275B;" points="35.316,7.857 48.957,7.857 48.957,13.313 43.29,13.313 58.19,51.715 62.596,51.715 
		62.596,57.365 44.13,57.365 44.13,51.868 38.946,51.868 38.946,62.647 68.093,62.647 68.093,46.576 61.548,46.587 51.056,18.616 
		54.351,18.616 54.351,2.554 35.316,2.554 16.281,2.554 16.281,18.616 19.577,18.616 9.084,46.552 2.539,46.576 2.539,62.647 
		31.688,62.647 31.688,51.868 26.502,51.868 26.502,57.365 8.035,57.365 8.035,51.715 12.442,51.715 27.342,13.313 21.675,13.313 
		21.675,7.857 	"/>
	<g>
		<path style="fill:#00275B;" d="M76.519,57.98c0.533,0.521,0.799,1.159,0.799,1.915c0,0.753-0.265,1.39-0.797,1.912
			c-0.532,0.52-1.183,0.78-1.955,0.78c-0.771,0-1.42-0.26-1.953-0.78c-0.53-0.522-0.796-1.159-0.796-1.912
			c0-0.756,0.267-1.394,0.798-1.915c0.533-0.522,1.183-0.781,1.951-0.781C75.336,57.199,75.986,57.458,76.519,57.98 M76.131,58.304
			c-0.424-0.433-0.947-0.649-1.565-0.649c-0.617,0-1.137,0.216-1.562,0.649c-0.426,0.433-0.638,0.964-0.638,1.591
			c0,0.626,0.212,1.157,0.638,1.589c0.425,0.431,0.945,0.647,1.562,0.647c0.616,0,1.137-0.216,1.564-0.647
			c0.426-0.432,0.639-0.963,0.639-1.589C76.769,59.268,76.557,58.737,76.131,58.304 M73.374,58.336h0.247h1.001
			c0.337,0,0.6,0.075,0.792,0.223c0.191,0.149,0.287,0.357,0.287,0.621c0,0.287-0.096,0.515-0.288,0.678
			c-0.143,0.121-0.327,0.199-0.552,0.229l0.896,1.364h-0.282H75.19l-0.807-1.346l-0.52,0.002v1.344h-0.244h-0.245V58.336z
			 M73.863,59.692h0.663c0.231,0,0.399-0.041,0.506-0.123c0.107-0.082,0.159-0.211,0.159-0.387c0-0.155-0.052-0.267-0.159-0.341
			c-0.107-0.072-0.275-0.109-0.506-0.109h-0.663V59.692z"/>
	</g>
	<polygon style="fill:#FFFFFF;" points="35.29,36.842 40.619,36.842 35.395,23.082 29.985,36.842 	"/>
	<rect x="86.4" y="0" style="fill:#00275B;" width="1.264" height="65.202"/>
	<g>
		<path style="fill:#00275B;" d="M421.949,31.173c0.733-0.616,1.636-0.923,2.71-0.923c2.236,0,3.579,1.181,4.028,3.545h-8.188
			C420.733,32.662,421.217,31.788,421.949,31.173 M432.013,35.259c0-0.996-0.181-1.916-0.542-2.761
			c-0.362-0.844-0.865-1.575-1.509-2.19c-0.645-0.615-1.406-1.093-2.285-1.435s-1.836-0.513-2.871-0.513
			c-1.055,0-2.029,0.154-2.923,0.461c-0.893,0.308-1.677,0.765-2.351,1.37c-0.518,0.469-0.972,1.023-1.362,1.663
			c-0.391,0.639-0.691,1.318-0.901,2.036c-0.21,0.718-0.315,1.443-0.315,2.175c0,1.494,0.378,2.832,1.135,4.014
			c0.757,1.181,1.822,2.1,3.194,2.754c1.372,0.654,2.917,0.981,4.636,0.981c0.508,0,1.013-0.024,1.516-0.073
			c0.503-0.049,0.981-0.13,1.436-0.242c0.454-0.112,0.93-0.261,1.428-0.447l1.714-3.017c-0.577,0.391-1.133,0.705-1.67,0.945
			c-0.537,0.239-1.111,0.415-1.721,0.527c-0.611,0.112-1.248,0.168-1.912,0.168c-1.24,0-2.334-0.234-3.281-0.703
			c-0.948-0.468-1.68-1.147-2.198-2.036c-0.517-0.888-0.805-1.943-0.864-3.164h11.646V35.259z M410.639,28.36
			c-1.368,0-2.571,0.181-3.611,0.542c-1.04,0.361-1.985,0.933-2.835,1.714c-1.719,1.582-2.578,3.501-2.578,5.757
			c0,1.054,0.215,2.043,0.645,2.966c0.429,0.923,1.035,1.719,1.816,2.388s1.692,1.184,2.732,1.545c1.04,0.361,2.19,0.542,3.45,0.542
			c1.718,0,3.066-0.19,4.043-0.571l1.86-3.091c-0.527,0.342-1.062,0.628-1.604,0.857c-0.542,0.23-1.082,0.398-1.619,0.505
			c-0.537,0.108-1.074,0.161-1.611,0.161c-1.221,0-2.322-0.256-3.303-0.769c-0.982-0.512-1.756-1.228-2.322-2.146
			c-0.566-0.917-0.85-1.933-0.85-3.046c0-1.035,0.218-1.951,0.652-2.747c0.435-0.796,1.06-1.409,1.875-1.838
			c0.816-0.43,1.736-0.645,2.762-0.645c1.582,0,2.9,0.513,3.955,1.538v-3.266C412.963,28.492,411.81,28.36,410.639,28.36
			 M395.896,23.489c-0.395,0.376-0.593,0.838-0.593,1.385c0,0.556,0.188,1.028,0.564,1.413c0.376,0.386,0.837,0.579,1.384,0.579
			c0.566,0,1.038-0.193,1.414-0.579c0.376-0.385,0.564-0.857,0.564-1.413c0-0.528-0.186-0.984-0.557-1.37s-0.825-0.579-1.362-0.579
			C396.763,22.925,396.292,23.114,395.896,23.489 M386.265,40.269c0,0.684-0.025,1.194-0.073,1.531
			c-0.049,0.337-0.149,0.61-0.301,0.82c-0.151,0.21-0.427,0.467-0.827,0.769h5.405c-0.225-0.136-0.381-0.254-0.469-0.351
			c-0.088-0.098-0.234-0.313-0.439-0.645c-0.117-0.224-0.208-0.466-0.271-0.725c-0.064-0.259-0.108-0.617-0.132-1.077
			c-0.025-0.458-0.037-0.927-0.037-1.406V30.88h4.468c0.576,0,0.981,0.043,1.216,0.131c0.234,0.088,0.459,0.284,0.674,0.586
			c0.175,0.235,0.29,0.498,0.344,0.791c0.053,0.293,0.08,0.83,0.08,1.612v6.269c0,1.006-0.061,1.668-0.183,1.985
			c-0.122,0.318-0.461,0.696-1.018,1.135h5.244c-0.556-0.439-0.896-0.817-1.018-1.135c-0.122-0.317-0.183-0.979-0.183-1.985V28.184
			c-0.39,0.401-1.01,0.601-1.86,0.601h-7.764v-2.022c0-0.947,0.098-1.567,0.293-1.86c0.371-0.615,1.021-0.923,1.948-0.923
			c0.567,0,1.109,0.171,1.626,0.513l2.256-2.461c-0.849-0.147-1.562-0.22-2.138-0.22c-2.247,0-3.946,0.503-5.098,1.509
			c-0.625,0.537-1.072,1.108-1.34,1.714c-0.269,0.605-0.403,1.343-0.403,2.212v1.538l-1.582,2.095h1.582V40.269z M381.618,30.88
			c0.547,0,0.92,0.031,1.12,0.095c0.2,0.063,0.389,0.203,0.564,0.417v-2.798c-0.351,0.127-0.722,0.191-1.113,0.191h-3.208v-2.022
			c0-0.947,0.098-1.567,0.293-1.86c0.371-0.615,1.02-0.923,1.948-0.923c0.566,0,1.108,0.171,1.626,0.513l2.256-2.461
			c-0.879-0.147-1.602-0.22-2.168-0.22c-1.142,0-2.126,0.122-2.952,0.366c-0.825,0.245-1.53,0.625-2.116,1.143
			c-0.625,0.537-1.072,1.108-1.341,1.714c-0.268,0.605-0.402,1.343-0.402,2.212v1.538l-1.582,2.095h1.582v9.389
			c0,0.684-0.025,1.194-0.074,1.531c-0.049,0.337-0.149,0.61-0.3,0.82c-0.151,0.21-0.427,0.467-0.828,0.769h5.406
			c-0.225-0.136-0.381-0.254-0.469-0.351c-0.088-0.098-0.234-0.313-0.44-0.645c-0.117-0.224-0.207-0.466-0.271-0.725
			c-0.063-0.259-0.107-0.617-0.131-1.077c-0.025-0.458-0.037-0.927-0.037-1.406V30.88H381.618z M366.965,27.042
			c1.435,1.757,2.153,3.857,2.153,6.298c0,1.211-0.188,2.327-0.564,3.348c-0.376,1.02-0.923,1.904-1.64,2.651
			c-0.718,0.747-1.57,1.318-2.557,1.714c-0.986,0.395-2.055,0.593-3.208,0.593c-1.162,0-2.195-0.193-3.098-0.578
			c-0.903-0.386-1.721-0.984-2.453-1.795c-0.528-0.586-0.984-1.245-1.37-1.977c-0.386-0.733-0.679-1.504-0.879-2.315
			c-0.2-0.81-0.3-1.616-0.3-2.417c0-1.152,0.195-2.256,0.586-3.31c0.39-1.055,0.923-1.934,1.596-2.637
			c0.704-0.713,1.568-1.282,2.593-1.707c1.026-0.424,2.08-0.637,3.164-0.637C363.42,24.273,365.412,25.196,366.965,27.042
			 M355.363,23.445c-1.836,0.962-3.276,2.291-4.321,3.985c-1.045,1.694-1.567,3.572-1.567,5.632c0,1.992,0.51,3.816,1.53,5.471
			c1.021,1.656,2.417,2.964,4.19,3.926c1.772,0.962,3.713,1.443,5.823,1.443c2.128,0,4.091-0.491,5.888-1.472
			c1.797-0.982,3.216-2.322,4.256-4.021c1.04-1.699,1.56-3.56,1.56-5.581c0-1.426-0.291-2.832-0.872-4.219
			c-0.581-1.387-1.36-2.549-2.336-3.486c-0.625-0.616-1.385-1.165-2.278-1.648c-0.894-0.484-1.839-0.85-2.835-1.099
			c-0.996-0.249-1.982-0.373-2.959-0.373C359.225,22.003,357.199,22.484,355.363,23.445 M334.987,28.36
			c-1.28,0-2.386,0.168-3.318,0.505c-0.933,0.337-1.648,0.828-2.146,1.473c-0.498,0.644-0.747,1.406-0.747,2.285
			c0,0.674,0.144,1.247,0.432,1.721c0.288,0.474,0.769,0.911,1.443,1.311c0.674,0.4,1.626,0.82,2.856,1.26
			c1.65,0.595,2.661,1.025,3.032,1.289c0.479,0.342,0.718,0.82,0.718,1.435c0,0.635-0.327,1.165-0.981,1.59
			c-0.655,0.424-1.465,0.637-2.432,0.637c-0.674,0-1.311-0.061-1.911-0.183c-0.601-0.122-1.219-0.325-1.853-0.608
			c-0.635-0.283-1.353-0.674-2.154-1.172l1.084,3.12c0.85,0.313,1.562,0.522,2.139,0.63c0.576,0.107,1.284,0.161,2.124,0.161
			c1.416,0,2.649-0.2,3.699-0.6c1.049-0.401,1.86-0.977,2.431-1.729c0.572-0.752,0.857-1.616,0.857-2.593
			c0-1.074-0.41-1.997-1.23-2.768c-0.41-0.371-0.867-0.674-1.37-0.909c-0.503-0.234-1.365-0.551-2.585-0.952
			c-0.86-0.273-1.529-0.517-2.007-0.732c-0.479-0.215-0.826-0.444-1.04-0.689c-0.215-0.244-0.323-0.517-0.323-0.82
			c0-0.527,0.266-0.954,0.799-1.282c0.532-0.327,1.238-0.49,2.117-0.49c1.23,0,2.529,0.41,3.896,1.23v-2.695
			C337.55,28.502,336.373,28.36,334.987,28.36 M316.074,31.173c0.732-0.616,1.636-0.923,2.71-0.923c2.236,0,3.579,1.181,4.028,3.545
			h-8.188C314.858,32.662,315.342,31.788,316.074,31.173 M326.137,35.259c0-0.996-0.18-1.916-0.542-2.761
			c-0.361-0.844-0.864-1.575-1.508-2.19c-0.645-0.615-1.407-1.093-2.286-1.435c-0.878-0.342-1.836-0.513-2.871-0.513
			c-1.054,0-2.028,0.154-2.922,0.461c-0.894,0.308-1.677,0.765-2.351,1.37c-0.518,0.469-0.972,1.023-1.362,1.663
			c-0.391,0.639-0.691,1.318-0.901,2.036c-0.21,0.718-0.315,1.443-0.315,2.175c0,1.494,0.378,2.832,1.135,4.014
			c0.757,1.181,1.821,2.1,3.193,2.754c1.372,0.654,2.918,0.981,4.637,0.981c0.507,0,1.013-0.024,1.516-0.073s0.981-0.13,1.435-0.242
			s0.931-0.261,1.429-0.447l1.713-3.017c-0.576,0.391-1.133,0.705-1.669,0.945c-0.538,0.239-1.111,0.415-1.722,0.527
			c-0.61,0.112-1.247,0.168-1.911,0.168c-1.241,0-2.334-0.234-3.282-0.703c-0.947-0.468-1.679-1.147-2.197-2.036
			c-0.518-0.888-0.805-1.943-0.864-3.164h11.645V35.259z M304.763,28.36c-1.367,0-2.57,0.181-3.61,0.542
			c-1.04,0.361-1.985,0.933-2.835,1.714c-1.719,1.582-2.578,3.501-2.578,5.757c0,1.054,0.215,2.043,0.644,2.966
			c0.43,0.923,1.036,1.719,1.817,2.388c0.781,0.669,1.692,1.184,2.732,1.545c1.04,0.361,2.19,0.542,3.45,0.542
			c1.718,0,3.066-0.19,4.043-0.571l1.86-3.091c-0.527,0.342-1.062,0.628-1.604,0.857c-0.542,0.23-1.082,0.398-1.619,0.505
			c-0.537,0.108-1.074,0.161-1.611,0.161c-1.221,0-2.322-0.256-3.303-0.769c-0.982-0.512-1.756-1.228-2.322-2.146
			c-0.567-0.917-0.85-1.933-0.85-3.046c0-1.035,0.217-1.951,0.652-2.747c0.435-0.796,1.06-1.409,1.875-1.838
			c0.815-0.43,1.736-0.645,2.761-0.645c1.582,0,2.901,0.513,3.955,1.538v-3.266C307.088,28.492,305.935,28.36,304.763,28.36
			 M290.005,23.497c-0.39,0.381-0.586,0.84-0.586,1.377c0,0.556,0.188,1.028,0.564,1.413c0.376,0.386,0.838,0.579,1.385,0.579
			c0.566,0,1.037-0.193,1.413-0.579c0.376-0.385,0.564-0.857,0.564-1.413c0-0.528-0.185-0.984-0.556-1.37
			c-0.372-0.386-0.826-0.579-1.363-0.579C290.87,22.925,290.396,23.116,290.005,23.497 M291.016,28.785h-2.197
			c0.41,0.312,0.691,0.571,0.842,0.776c0.151,0.205,0.249,0.454,0.293,0.747c0.044,0.293,0.066,0.826,0.066,1.597v8.364
			c0,0.762-0.022,1.292-0.066,1.59c-0.044,0.298-0.142,0.549-0.293,0.754c-0.151,0.205-0.432,0.464-0.842,0.776h5.244
			c-0.401-0.322-0.676-0.583-0.828-0.783c-0.151-0.2-0.251-0.462-0.3-0.784c-0.049-0.322-0.073-0.84-0.073-1.553V28.184
			C292.491,28.585,291.875,28.785,291.016,28.785 M274.862,29.678c-0.215-0.498-0.346-0.986-0.395-1.464
			c-0.342,0.234-0.659,0.388-0.952,0.461c-0.293,0.073-0.743,0.11-1.348,0.11h-2.109c0.595,0.361,1.015,0.642,1.259,0.842
			c0.244,0.2,0.455,0.447,0.63,0.74c0.176,0.293,0.449,0.854,0.821,1.684l3.72,8.555c0.293,0.713,0.562,1.262,0.806,1.648
			c0.244,0.386,0.566,0.735,0.967,1.047c0.4,0.313,1.049,0.733,1.948,1.26l7.192-15.776h-4.497c0.411,0.293,0.684,0.542,0.821,0.747
			c0.136,0.205,0.205,0.483,0.205,0.835c0,0.43-0.181,1.05-0.542,1.86l-3.78,8.467L274.862,29.678z M264.808,42.606
			c-0.152-0.2-0.252-0.462-0.301-0.784c-0.049-0.322-0.073-0.84-0.073-1.553v-5.215c0-1.298,0.225-2.26,0.674-2.885
			c0.273-0.401,0.654-0.716,1.142-0.945c0.489-0.23,1.016-0.344,1.582-0.344c0.645,0,1.143,0.171,1.495,0.512v-2.915
			c-0.44-0.078-0.806-0.117-1.099-0.117c-0.82,0-1.553,0.208-2.197,0.623c-0.645,0.415-1.177,1.018-1.597,1.809v-2.608
			c-0.371,0.401-0.987,0.601-1.846,0.601h-2.197c0.41,0.312,0.691,0.571,0.842,0.776c0.152,0.205,0.249,0.454,0.293,0.747
			s0.066,0.826,0.066,1.597v8.364c0,0.762-0.022,1.292-0.066,1.59s-0.141,0.549-0.293,0.754c-0.151,0.205-0.432,0.464-0.842,0.776
			h5.244C265.235,43.067,264.959,42.806,264.808,42.606 M248.437,31.173c0.732-0.616,1.635-0.923,2.71-0.923
			c2.236,0,3.579,1.181,4.028,3.545h-8.189C247.221,32.662,247.704,31.788,248.437,31.173 M258.5,35.259
			c0-0.996-0.181-1.916-0.542-2.761c-0.361-0.844-0.864-1.575-1.509-2.19c-0.644-0.615-1.406-1.093-2.285-1.435
			s-1.836-0.513-2.871-0.513c-1.055,0-2.029,0.154-2.922,0.461c-0.894,0.308-1.678,0.765-2.351,1.37
			c-0.518,0.469-0.972,1.023-1.363,1.663c-0.39,0.639-0.691,1.318-0.901,2.036c-0.21,0.718-0.315,1.443-0.315,2.175
			c0,1.494,0.379,2.832,1.136,4.014c0.756,1.181,1.821,2.1,3.193,2.754c1.372,0.654,2.917,0.981,4.636,0.981
			c0.508,0,1.013-0.024,1.516-0.073c0.503-0.049,0.982-0.13,1.436-0.242c0.454-0.112,0.93-0.261,1.428-0.447l1.714-3.017
			c-0.576,0.391-1.133,0.705-1.67,0.945c-0.537,0.239-1.111,0.415-1.721,0.527s-1.248,0.168-1.912,0.168
			c-1.24,0-2.334-0.234-3.281-0.703c-0.947-0.468-1.68-1.147-2.197-2.036c-0.518-0.888-0.806-1.943-0.864-3.164H258.5V35.259z
			 M234.856,22.032c-1.591,0-2.981,0.229-4.167,0.688c-1.187,0.46-2.102,1.111-2.747,1.956c-0.644,0.845-0.966,1.834-0.966,2.966
			c0,0.674,0.148,1.338,0.446,1.992c0.298,0.655,0.696,1.211,1.194,1.67c0.459,0.42,1.006,0.813,1.641,1.18
			c0.634,0.366,1.547,0.813,2.739,1.34c1.309,0.596,2.236,1.042,2.783,1.34s0.972,0.589,1.275,0.872
			c0.693,0.625,1.04,1.377,1.04,2.256c0,0.615-0.208,1.167-0.623,1.655c-0.415,0.488-0.989,0.874-1.721,1.157
			c-0.732,0.284-1.529,0.425-2.388,0.425c-2.519,0-4.839-0.84-6.958-2.52l0.952,3.926c1.006,0.352,1.939,0.606,2.798,0.762
			c0.859,0.156,1.787,0.234,2.783,0.234c2.803,0,5.015-0.781,6.636-2.343c0.606-0.596,1.082-1.265,1.428-2.007
			c0.347-0.742,0.52-1.504,0.52-2.285c0-0.684-0.149-1.324-0.446-1.919c-0.298-0.596-0.721-1.104-1.267-1.524
			c-0.46-0.39-0.989-0.747-1.59-1.069c-0.6-0.322-1.609-0.815-3.025-1.48c-1.318-0.615-2.299-1.12-2.944-1.516
			c-0.645-0.395-1.096-0.791-1.355-1.186c-0.259-0.396-0.388-0.857-0.388-1.385c0-0.878,0.383-1.594,1.15-2.146
			c0.766-0.551,1.774-0.827,3.025-0.827c0.927,0,1.823,0.178,2.688,0.534c0.864,0.357,1.638,0.872,2.321,1.546V22.72
			C238.059,22.261,236.448,22.032,234.856,22.032 M215.864,42.254c-0.122-0.317-0.183-0.979-0.183-1.985V21.944
			c-0.371,0.401-0.991,0.601-1.86,0.601h-2.183c0.41,0.312,0.691,0.569,0.842,0.769c0.152,0.2,0.249,0.446,0.293,0.739
			s0.066,0.831,0.066,1.612v14.604c0,0.762-0.022,1.292-0.066,1.59s-0.141,0.549-0.293,0.754c-0.151,0.205-0.432,0.464-0.842,0.776
			h5.244C216.326,42.95,215.986,42.572,215.864,42.254 M205.346,41.763c0.161,0.44,0.481,0.811,0.959,1.114
			c0.381,0.234,0.781,0.398,1.201,0.49c0.42,0.093,1.011,0.169,1.773,0.227l1.377-2.065c-0.87-0.029-1.499-0.2-1.89-0.513
			c-0.361-0.263-0.586-0.549-0.674-0.857c-0.088-0.307-0.132-0.91-0.132-1.809v-4.087c0-1.162-0.036-1.97-0.109-2.424
			c-0.074-0.454-0.247-0.906-0.521-1.355c-0.888-1.416-2.671-2.124-5.346-2.124c-0.762,0-1.494,0.068-2.197,0.205l-2.095,3.179
			c1.035-0.498,1.85-0.833,2.446-1.004c0.596-0.17,1.221-0.256,1.875-0.256c0.586,0,1.111,0.083,1.575,0.249
			s0.822,0.403,1.076,0.711c0.254,0.307,0.381,0.661,0.381,1.062c0,0.566-0.237,0.996-0.71,1.289
			c-0.474,0.293-1.428,0.581-2.864,0.864c-1.982,0.381-3.369,0.791-4.16,1.23c-0.537,0.284-0.967,0.721-1.289,1.311
			c-0.322,0.591-0.484,1.214-0.484,1.868c0,1.377,0.537,2.549,1.612,3.516c0.918,0.82,2.168,1.23,3.75,1.23
			c0.615,0,1.196-0.064,1.743-0.19l1.86-2.359c-0.898,0.274-1.689,0.41-2.373,0.41c-1.054,0-1.877-0.229-2.468-0.688
			c-0.591-0.459-0.886-1.089-0.886-1.89c0-1.25,0.762-2.06,2.285-2.431c1.143-0.264,1.877-0.44,2.205-0.528
			c0.327-0.088,0.624-0.178,0.893-0.271c0.269-0.092,0.584-0.227,0.945-0.402v4.086C205.104,40.587,205.184,41.324,205.346,41.763
			 M190.136,23.497c-0.39,0.381-0.586,0.84-0.586,1.377c0,0.556,0.188,1.028,0.564,1.413c0.376,0.386,0.838,0.579,1.385,0.579
			c0.566,0,1.037-0.193,1.413-0.579c0.376-0.385,0.564-0.857,0.564-1.413c0-0.528-0.185-0.984-0.556-1.37
			c-0.372-0.386-0.826-0.579-1.363-0.579C191.001,22.925,190.527,23.116,190.136,23.497 M191.147,28.785h-2.197
			c0.41,0.312,0.691,0.571,0.842,0.776c0.151,0.205,0.249,0.454,0.293,0.747c0.044,0.293,0.066,0.826,0.066,1.597v8.364
			c0,0.762-0.022,1.292-0.066,1.59c-0.044,0.298-0.142,0.549-0.293,0.754c-0.151,0.205-0.432,0.464-0.842,0.776h5.244
			c-0.401-0.322-0.676-0.583-0.828-0.783c-0.151-0.2-0.251-0.462-0.3-0.784c-0.049-0.322-0.073-0.84-0.073-1.553V28.184
			C192.622,28.585,192.006,28.785,191.147,28.785 M182.714,28.36c-1.368,0-2.571,0.181-3.611,0.542
			c-1.04,0.361-1.985,0.933-2.835,1.714c-1.718,1.582-2.578,3.501-2.578,5.757c0,1.054,0.215,2.043,0.645,2.966
			c0.429,0.923,1.035,1.719,1.816,2.388c0.781,0.669,1.692,1.184,2.732,1.545s2.19,0.542,3.45,0.542c1.719,0,3.066-0.19,4.043-0.571
			l1.86-3.091c-0.527,0.342-1.062,0.628-1.604,0.857c-0.542,0.23-1.081,0.398-1.618,0.505c-0.538,0.108-1.075,0.161-1.612,0.161
			c-1.221,0-2.322-0.256-3.303-0.769c-0.981-0.512-1.756-1.228-2.322-2.146c-0.566-0.917-0.849-1.933-0.849-3.046
			c0-1.035,0.217-1.951,0.651-2.747c0.435-0.796,1.06-1.409,1.875-1.838c0.816-0.43,1.736-0.645,2.762-0.645
			c1.582,0,2.9,0.513,3.955,1.538v-3.266C185.038,28.492,183.886,28.36,182.714,28.36 M158.752,28.785h-2.036
			c0.41,0.312,0.69,0.571,0.842,0.776c0.151,0.205,0.249,0.454,0.293,0.747c0.044,0.293,0.066,0.826,0.066,1.597v8.364
			c0,0.762-0.022,1.292-0.066,1.59c-0.044,0.298-0.142,0.549-0.293,0.754c-0.152,0.205-0.432,0.464-0.842,0.776h5.244
			c-0.401-0.322-0.676-0.583-0.828-0.783c-0.151-0.2-0.251-0.462-0.3-0.784c-0.049-0.322-0.073-0.84-0.073-1.553v-6.387
			c0-0.8,0.141-1.401,0.424-1.801c0.313-0.43,0.733-0.767,1.26-1.011c0.528-0.244,1.108-0.366,1.743-0.366
			c0.655,0,1.272,0.124,1.853,0.373c0.581,0.249,1.023,0.574,1.326,0.974c0.244,0.293,0.42,0.687,0.527,1.18
			c0.108,0.493,0.162,1.159,0.162,1.999v5.039c0,0.684-0.025,1.192-0.074,1.524c-0.049,0.332-0.151,0.603-0.307,0.813
			c-0.157,0.21-0.44,0.471-0.85,0.783h5.288c-0.556-0.439-0.896-0.817-1.018-1.135c-0.122-0.317-0.183-0.979-0.183-1.985v-5.376
			c0-1.201-0.054-2.102-0.161-2.702c-0.108-0.601-0.303-1.126-0.586-1.575c-0.303-0.44-0.703-0.833-1.201-1.179
			c-0.498-0.347-1.072-0.613-1.721-0.799c-0.65-0.185-1.297-0.278-1.941-0.278c-0.938,0-1.758,0.183-2.461,0.549
			c-0.703,0.367-1.446,1.004-2.227,1.912v-2.637C160.241,28.585,159.621,28.785,158.752,28.785 M150.351,41.763
			c0.161,0.44,0.481,0.811,0.96,1.114c0.38,0.234,0.781,0.398,1.201,0.49c0.42,0.093,1.011,0.169,1.772,0.227l1.377-2.065
			c-0.869-0.029-1.499-0.2-1.889-0.513c-0.362-0.263-0.586-0.549-0.674-0.857c-0.088-0.307-0.132-0.91-0.132-1.809v-4.087
			c0-1.162-0.037-1.97-0.11-2.424c-0.073-0.454-0.247-0.906-0.52-1.355c-0.889-1.416-2.671-2.124-5.347-2.124
			c-0.761,0-1.494,0.068-2.197,0.205l-2.095,3.179c1.035-0.498,1.851-0.833,2.447-1.004c0.595-0.17,1.22-0.256,1.875-0.256
			c0.586,0,1.11,0.083,1.574,0.249c0.464,0.166,0.823,0.403,1.077,0.711c0.254,0.307,0.381,0.661,0.381,1.062
			c0,0.566-0.237,0.996-0.711,1.289c-0.473,0.293-1.428,0.581-2.863,0.864c-1.983,0.381-3.37,0.791-4.161,1.23
			c-0.537,0.284-0.966,0.721-1.289,1.311c-0.322,0.591-0.483,1.214-0.483,1.868c0,1.377,0.537,2.549,1.611,3.516
			c0.918,0.82,2.168,1.23,3.75,1.23c0.616,0,1.196-0.064,1.743-0.19l1.861-2.359c-0.899,0.274-1.69,0.41-2.373,0.41
			c-1.055,0-1.878-0.229-2.468-0.688c-0.591-0.459-0.887-1.089-0.887-1.89c0-1.25,0.762-2.06,2.285-2.431
			c1.143-0.264,1.878-0.44,2.205-0.528s0.625-0.178,0.894-0.271c0.268-0.092,0.583-0.227,0.944-0.402v4.086
			C150.109,40.587,150.19,41.324,150.351,41.763 M125.851,28.785h-2.036c0.41,0.312,0.691,0.571,0.842,0.776
			c0.151,0.205,0.249,0.454,0.293,0.747s0.066,0.826,0.066,1.597v8.364c0,0.762-0.022,1.292-0.066,1.59s-0.142,0.549-0.293,0.754
			c-0.151,0.205-0.432,0.464-0.842,0.776h5.244c-0.401-0.322-0.676-0.583-0.828-0.783c-0.151-0.2-0.251-0.462-0.3-0.784
			c-0.049-0.322-0.073-0.84-0.073-1.553v-6.387c0-0.8,0.141-1.401,0.425-1.801c0.312-0.43,0.732-0.767,1.259-1.011
			c0.528-0.244,1.109-0.366,1.744-0.366c0.654,0,1.271,0.124,1.853,0.373c0.58,0.249,1.022,0.574,1.325,0.974
			c0.244,0.293,0.42,0.687,0.528,1.18c0.107,0.493,0.161,1.159,0.161,1.999v5.039c0,0.684-0.025,1.192-0.073,1.524
			c-0.049,0.332-0.152,0.603-0.308,0.813c-0.156,0.21-0.44,0.471-0.85,0.783h5.288c-0.556-0.439-0.896-0.817-1.018-1.135
			c-0.122-0.317-0.183-0.979-0.183-1.985v-5.376c0-1.201-0.054-2.102-0.161-2.702c-0.108-0.601-0.303-1.126-0.586-1.575
			c-0.303-0.44-0.703-0.833-1.201-1.179c-0.498-0.347-1.072-0.613-1.721-0.799c-0.65-0.185-1.297-0.278-1.941-0.278
			c-0.938,0-1.758,0.183-2.461,0.549c-0.703,0.367-1.445,1.004-2.227,1.912v-2.637C127.34,28.585,126.72,28.785,125.851,28.785
			 M117.8,23.497c-0.391,0.381-0.586,0.84-0.586,1.377c0,0.556,0.188,1.028,0.564,1.413c0.375,0.386,0.837,0.579,1.384,0.579
			c0.566,0,1.037-0.193,1.413-0.579c0.376-0.385,0.564-0.857,0.564-1.413c0-0.528-0.185-0.984-0.556-1.37
			c-0.371-0.386-0.826-0.579-1.363-0.579C118.664,22.925,118.19,23.116,117.8,23.497 M118.81,28.785h-2.197
			c0.41,0.312,0.691,0.571,0.842,0.776c0.152,0.205,0.249,0.454,0.293,0.747s0.066,0.826,0.066,1.597v8.364
			c0,0.762-0.022,1.292-0.066,1.59s-0.141,0.549-0.293,0.754c-0.151,0.205-0.432,0.464-0.842,0.776h5.244
			c-0.4-0.322-0.676-0.583-0.827-0.783c-0.152-0.2-0.252-0.462-0.301-0.784c-0.049-0.322-0.073-0.84-0.073-1.553V28.184
			C120.285,28.585,119.67,28.785,118.81,28.785 M110.835,33.194c0.723,0,1.262,0.064,1.619,0.19
			c0.356,0.127,0.646,0.352,0.871,0.674v-3.354c-0.293,0.137-0.649,0.205-1.069,0.205h-4.234v-5.903
			c0.372-0.069,0.83-0.122,1.377-0.162c0.547-0.039,1.187-0.058,1.919-0.058c0.996,0,1.76,0.083,2.293,0.249
			c0.532,0.166,1.047,0.493,1.545,0.981v-3.662c-0.322,0.127-0.723,0.191-1.201,0.191h-10.532c0.39,0.205,0.688,0.451,0.893,0.739
			c0.206,0.288,0.345,0.684,0.418,1.187c0.073,0.503,0.11,1.208,0.11,2.117v12.758c0,0.909-0.037,1.614-0.11,2.117
			c-0.073,0.503-0.212,0.899-0.418,1.187c-0.205,0.288-0.503,0.534-0.893,0.739h6.006c-0.401-0.205-0.699-0.449-0.894-0.732
			c-0.195-0.283-0.329-0.679-0.403-1.187c-0.073-0.507-0.11-1.215-0.11-2.124v-6.152H110.835z"/>
	</g>
</g>
</svg>
